<svg width="25" height="25" viewBox="0 0 25 25" fill="none" xmlns="http://www.w3.org/2000/svg">
<mask id="mask0_801_13" style="mask-type:alpha" maskUnits="userSpaceOnUse" x="0" y="0" width="25" height="25">
<rect width="25" height="25" fill="#D9D9D9"/>
</mask>
<g mask="url(#mask0_801_13)">
<path d="M5.52889 24.1668C5.00271 24.1668 4.55733 23.9845 4.19275 23.6199C3.82817 23.2553 3.64587 22.8099 3.64587 22.2837V8.34149C3.64587 7.81531 3.82817 7.36993 4.19275 7.00535C4.55733 6.64076 5.00271 6.45847 5.52889 6.45847H14.4251L12.8626 8.02094H5.52889C5.44876 8.02094 5.37529 8.05433 5.3085 8.1211C5.24173 8.18789 5.20835 8.26135 5.20835 8.34149V22.2837C5.20835 22.3639 5.24173 22.4373 5.3085 22.5041C5.37529 22.5709 5.44876 22.6043 5.52889 22.6043H19.4711C19.5513 22.6043 19.6247 22.5709 19.6915 22.5041C19.7583 22.4373 19.7917 22.3639 19.7917 22.2837V14.934L21.3542 13.3715V22.2837C21.3542 22.8099 21.1719 23.2553 20.8073 23.6199C20.4427 23.9845 19.9973 24.1668 19.4711 24.1668H5.52889ZM17.2196 6.89717L18.3434 7.9949L11.4583 14.8699V16.3543H12.9167L19.8377 9.45324L20.9415 10.5409L13.5917 17.9168H9.89587V14.2209L17.2196 6.89717ZM20.9415 10.5409L17.2196 6.89717L19.6034 4.51337C19.9733 4.14345 20.4224 3.9585 20.9505 3.9585C21.4787 3.9585 21.9224 4.14679 22.2817 4.52339L23.2993 5.54699C23.6585 5.91291 23.8381 6.35395 23.8381 6.87011C23.8381 7.38626 23.6552 7.82729 23.2892 8.19321L20.9415 10.5409Z" fill="#1B1C1D"/>
</g>
</svg>
